<mxfile type="github" version="12.5.1" etag="OmOwn1r3cZU56SSG_n2C" agent="Mozilla/5.0 (Windows NT 10.0; Win64; x64) AppleWebKit/537.36 (KHTML, like Gecko) Chrome/70.0.3538.102 Safari/537.36 Edge/18.18363" modified="2020-01-10T10:09:12.612Z" host="www.draw.io">
  <diagram id="C5RBs43oDa-KdzZeNtuy" name="Page-1">
    <mxGraphModel grid="1" dx="1038" dy="576" gridSize="10" guides="1" tooltips="1" connect="1" arrows="1" fold="1" page="1" pageScale="1" pageWidth="827" pageHeight="1169" math="0" shadow="0">
      <root>
        <mxCell id="WIyWlLk6GJQsqaUBKTNV-0"/>
        <mxCell id="WIyWlLk6GJQsqaUBKTNV-1" parent="WIyWlLk6GJQsqaUBKTNV-0"/>
        <mxCell id="GxkiA4aT5WZfQ0APfjsJ-0" value="" parent="WIyWlLk6GJQsqaUBKTNV-1" vertex="1" style="rounded=0;whiteSpace=wrap;html=1;dashed=1;dashPattern=1 2;fillColor=none;strokeWidth=3;">
          <mxGeometry as="geometry" x="40" y="30" width="320" height="160"/>
        </mxCell>
        <mxCell id="GxkiA4aT5WZfQ0APfjsJ-1" value="Stop in front of traffic light&lt;br&gt;with cam" parent="WIyWlLk6GJQsqaUBKTNV-1" vertex="1" style="rounded=1;whiteSpace=wrap;html=1;fontSize=12;glass=0;strokeWidth=1;shadow=0;">
          <mxGeometry as="geometry" x="150" y="50" width="100" height="40"/>
        </mxCell>
        <mxCell id="GxkiA4aT5WZfQ0APfjsJ-2" value="Collecting Data" parent="WIyWlLk6GJQsqaUBKTNV-1" vertex="1" style="text;html=1;strokeColor=none;fillColor=none;align=center;verticalAlign=middle;whiteSpace=wrap;rounded=0;dashed=1;dashPattern=1 2;">
          <mxGeometry as="geometry" x="50" y="40" width="40" height="20"/>
        </mxCell>
        <mxCell id="GxkiA4aT5WZfQ0APfjsJ-4" value="" parent="WIyWlLk6GJQsqaUBKTNV-1" style="rounded=0;html=1;jettySize=auto;orthogonalLoop=1;fontSize=11;endArrow=block;endFill=0;endSize=8;strokeWidth=1;shadow=0;labelBackgroundColor=none;edgeStyle=orthogonalEdgeStyle;exitX=0.5;exitY=1;exitDx=0;exitDy=0;entryX=0.5;entryY=0;entryDx=0;entryDy=0;" source="GxkiA4aT5WZfQ0APfjsJ-1" target="GxkiA4aT5WZfQ0APfjsJ-5" edge="1">
          <mxGeometry as="geometry" relative="1">
            <mxPoint as="sourcePoint" x="550" y="200"/>
            <mxPoint as="targetPoint" x="470" y="110"/>
          </mxGeometry>
        </mxCell>
        <mxCell id="GxkiA4aT5WZfQ0APfjsJ-5" value="Collecting Picture of pre-processed image" parent="WIyWlLk6GJQsqaUBKTNV-1" vertex="1" style="rounded=1;whiteSpace=wrap;html=1;fontSize=12;glass=0;strokeWidth=1;shadow=0;">
          <mxGeometry as="geometry" x="140" y="125" width="120" height="40"/>
        </mxCell>
        <mxCell id="GxkiA4aT5WZfQ0APfjsJ-6" value="" parent="WIyWlLk6GJQsqaUBKTNV-1" vertex="1" style="rounded=0;whiteSpace=wrap;html=1;dashed=1;dashPattern=1 2;fillColor=none;strokeWidth=3;">
          <mxGeometry as="geometry" x="40" y="220" width="320" height="90"/>
        </mxCell>
        <mxCell id="GxkiA4aT5WZfQ0APfjsJ-7" value="Training" parent="WIyWlLk6GJQsqaUBKTNV-1" vertex="1" style="text;html=1;strokeColor=none;fillColor=none;align=center;verticalAlign=middle;whiteSpace=wrap;rounded=0;dashed=1;dashPattern=1 2;">
          <mxGeometry as="geometry" x="50" y="225" width="40" height="20"/>
        </mxCell>
        <mxCell id="GxkiA4aT5WZfQ0APfjsJ-8" value="Train ANN with cropped image" parent="WIyWlLk6GJQsqaUBKTNV-1" vertex="1" style="rounded=1;whiteSpace=wrap;html=1;fontSize=12;glass=0;strokeWidth=1;shadow=0;">
          <mxGeometry as="geometry" x="140" y="245" width="120" height="40"/>
        </mxCell>
        <mxCell id="GxkiA4aT5WZfQ0APfjsJ-9" value="" parent="WIyWlLk6GJQsqaUBKTNV-1" style="rounded=0;html=1;jettySize=auto;orthogonalLoop=1;fontSize=11;endArrow=block;endFill=0;endSize=8;strokeWidth=1;shadow=0;labelBackgroundColor=none;edgeStyle=orthogonalEdgeStyle;exitX=0.5;exitY=1;exitDx=0;exitDy=0;entryX=0.5;entryY=0;entryDx=0;entryDy=0;" source="GxkiA4aT5WZfQ0APfjsJ-5" target="GxkiA4aT5WZfQ0APfjsJ-8" edge="1">
          <mxGeometry as="geometry" relative="1">
            <mxPoint as="sourcePoint" x="550" y="200"/>
            <mxPoint as="targetPoint" x="550" y="250"/>
          </mxGeometry>
        </mxCell>
        <mxCell id="GxkiA4aT5WZfQ0APfjsJ-10" value="" parent="WIyWlLk6GJQsqaUBKTNV-1" vertex="1" style="rounded=0;whiteSpace=wrap;html=1;dashed=1;dashPattern=1 2;fillColor=none;strokeWidth=3;">
          <mxGeometry as="geometry" x="40" y="350" width="320" height="340"/>
        </mxCell>
        <mxCell id="GxkiA4aT5WZfQ0APfjsJ-11" value="Detecting" parent="WIyWlLk6GJQsqaUBKTNV-1" vertex="1" style="text;html=1;strokeColor=none;fillColor=none;align=center;verticalAlign=middle;whiteSpace=wrap;rounded=0;dashed=1;dashPattern=1 2;">
          <mxGeometry as="geometry" x="50" y="360" width="40" height="20"/>
        </mxCell>
        <mxCell id="GxkiA4aT5WZfQ0APfjsJ-12" value="Stop in front of traffic light at red light" parent="WIyWlLk6GJQsqaUBKTNV-1" vertex="1" style="rounded=1;whiteSpace=wrap;html=1;fontSize=12;glass=0;strokeWidth=1;shadow=0;">
          <mxGeometry as="geometry" x="140" y="380" width="120" height="40"/>
        </mxCell>
        <mxCell id="GxkiA4aT5WZfQ0APfjsJ-13" value="" parent="WIyWlLk6GJQsqaUBKTNV-1" style="rounded=0;html=1;jettySize=auto;orthogonalLoop=1;fontSize=11;endArrow=block;endFill=0;endSize=8;strokeWidth=1;shadow=0;labelBackgroundColor=none;edgeStyle=orthogonalEdgeStyle;exitX=0.5;exitY=1;exitDx=0;exitDy=0;entryX=0.5;entryY=0;entryDx=0;entryDy=0;" source="GxkiA4aT5WZfQ0APfjsJ-8" target="GxkiA4aT5WZfQ0APfjsJ-12" edge="1">
          <mxGeometry as="geometry" relative="1">
            <mxPoint as="sourcePoint" x="550" y="200"/>
            <mxPoint as="targetPoint" x="550" y="250"/>
          </mxGeometry>
        </mxCell>
        <mxCell id="GxkiA4aT5WZfQ0APfjsJ-14" value="Front cam is cropped horizentally" parent="WIyWlLk6GJQsqaUBKTNV-1" vertex="1" style="rounded=1;whiteSpace=wrap;html=1;fontSize=12;glass=0;strokeWidth=1;shadow=0;">
          <mxGeometry as="geometry" x="140" y="460" width="120" height="60"/>
        </mxCell>
        <mxCell id="GxkiA4aT5WZfQ0APfjsJ-15" value="Trainned image is in half-over image of cam?" parent="WIyWlLk6GJQsqaUBKTNV-1" vertex="1" style="rhombus;whiteSpace=wrap;html=1;shadow=0;fontFamily=Helvetica;fontSize=12;align=center;strokeWidth=1;spacing=6;spacingTop=-4;">
          <mxGeometry as="geometry" x="125" y="560" width="150" height="110"/>
        </mxCell>
        <mxCell id="GxkiA4aT5WZfQ0APfjsJ-18" value="" parent="WIyWlLk6GJQsqaUBKTNV-1" style="rounded=0;html=1;jettySize=auto;orthogonalLoop=1;fontSize=11;endArrow=block;endFill=0;endSize=8;strokeWidth=1;shadow=0;labelBackgroundColor=none;edgeStyle=orthogonalEdgeStyle;exitX=0.5;exitY=1;exitDx=0;exitDy=0;entryX=0.5;entryY=0;entryDx=0;entryDy=0;" source="GxkiA4aT5WZfQ0APfjsJ-12" target="GxkiA4aT5WZfQ0APfjsJ-14" edge="1">
          <mxGeometry as="geometry" relative="1">
            <mxPoint as="sourcePoint" x="210" y="295"/>
            <mxPoint as="targetPoint" x="210" y="390"/>
          </mxGeometry>
        </mxCell>
        <mxCell id="GxkiA4aT5WZfQ0APfjsJ-19" value="" parent="WIyWlLk6GJQsqaUBKTNV-1" style="rounded=0;html=1;jettySize=auto;orthogonalLoop=1;fontSize=11;endArrow=block;endFill=0;endSize=8;strokeWidth=1;shadow=0;labelBackgroundColor=none;edgeStyle=orthogonalEdgeStyle;exitX=0.5;exitY=1;exitDx=0;exitDy=0;entryX=0.5;entryY=0;entryDx=0;entryDy=0;" source="GxkiA4aT5WZfQ0APfjsJ-14" target="GxkiA4aT5WZfQ0APfjsJ-15" edge="1">
          <mxGeometry as="geometry" relative="1">
            <mxPoint as="sourcePoint" x="210" y="430"/>
            <mxPoint as="targetPoint" x="200" y="540"/>
          </mxGeometry>
        </mxCell>
        <mxCell id="GxkiA4aT5WZfQ0APfjsJ-20" value="Yes" parent="WIyWlLk6GJQsqaUBKTNV-1" style="edgeStyle=orthogonalEdgeStyle;rounded=0;html=1;jettySize=auto;orthogonalLoop=1;fontSize=11;endArrow=block;endFill=0;endSize=8;strokeWidth=1;shadow=0;labelBackgroundColor=none;exitX=0.5;exitY=1;exitDx=0;exitDy=0;entryX=0.5;entryY=0;entryDx=0;entryDy=0;" source="GxkiA4aT5WZfQ0APfjsJ-15" target="0bkosJNQqSrqtFEL-qHv-5" edge="1">
          <mxGeometry as="geometry" x="-1" y="20" relative="1">
            <mxPoint as="offset"/>
            <mxPoint as="sourcePoint" x="600" y="410"/>
            <mxPoint as="targetPoint" x="200" y="740"/>
          </mxGeometry>
        </mxCell>
        <mxCell id="GxkiA4aT5WZfQ0APfjsJ-21" value="No" parent="WIyWlLk6GJQsqaUBKTNV-1" style="rounded=0;html=1;jettySize=auto;orthogonalLoop=1;fontSize=11;endArrow=block;endFill=0;endSize=8;strokeWidth=1;shadow=0;labelBackgroundColor=none;edgeStyle=orthogonalEdgeStyle;exitX=1;exitY=0.5;exitDx=0;exitDy=0;entryX=1;entryY=0.5;entryDx=0;entryDy=0;" source="GxkiA4aT5WZfQ0APfjsJ-15" target="GxkiA4aT5WZfQ0APfjsJ-12" edge="1">
          <mxGeometry as="geometry" x="-0.625" y="30" relative="1">
            <mxPoint as="offset"/>
            <mxPoint as="sourcePoint" x="550" y="450"/>
            <mxPoint as="targetPoint" x="550" y="510"/>
            <Array as="points">
              <mxPoint x="320" y="615"/>
              <mxPoint x="320" y="400"/>
            </Array>
          </mxGeometry>
        </mxCell>
        <mxCell id="GxkiA4aT5WZfQ0APfjsJ-22" value="" parent="WIyWlLk6GJQsqaUBKTNV-1" vertex="1" style="rounded=0;whiteSpace=wrap;html=1;dashed=1;dashPattern=1 2;fillColor=none;strokeWidth=3;">
          <mxGeometry as="geometry" x="40" y="720" width="320" height="170"/>
        </mxCell>
        <mxCell id="GxkiA4aT5WZfQ0APfjsJ-23" value="Detecting" parent="WIyWlLk6GJQsqaUBKTNV-1" vertex="1" style="text;html=1;strokeColor=none;fillColor=none;align=center;verticalAlign=middle;whiteSpace=wrap;rounded=0;dashed=1;dashPattern=1 2;">
          <mxGeometry as="geometry" x="50" y="730" width="40" height="20"/>
        </mxCell>
        <mxCell id="0bkosJNQqSrqtFEL-qHv-0" value="" parent="WIyWlLk6GJQsqaUBKTNV-1" vertex="1" style="rounded=0;whiteSpace=wrap;html=1;dashed=1;dashPattern=1 2;fillColor=none;strokeWidth=3;">
          <mxGeometry as="geometry" x="40" y="920" width="320" height="80"/>
        </mxCell>
        <mxCell id="0bkosJNQqSrqtFEL-qHv-1" value="Actuating" parent="WIyWlLk6GJQsqaUBKTNV-1" vertex="1" style="text;html=1;strokeColor=none;fillColor=none;align=center;verticalAlign=middle;whiteSpace=wrap;rounded=0;dashed=1;dashPattern=1 2;">
          <mxGeometry as="geometry" x="50" y="930" width="40" height="20"/>
        </mxCell>
        <mxCell id="0bkosJNQqSrqtFEL-qHv-2" value="Display Alarm" parent="WIyWlLk6GJQsqaUBKTNV-1" vertex="1" style="rounded=1;whiteSpace=wrap;html=1;fontSize=12;glass=0;strokeWidth=1;shadow=0;">
          <mxGeometry as="geometry" x="140" y="940" width="120" height="40"/>
        </mxCell>
        <mxCell id="0bkosJNQqSrqtFEL-qHv-5" value="Color ?" parent="WIyWlLk6GJQsqaUBKTNV-1" vertex="1" style="rhombus;whiteSpace=wrap;html=1;shadow=0;fontFamily=Helvetica;fontSize=12;align=center;strokeWidth=1;spacing=6;spacingTop=-4;">
          <mxGeometry as="geometry" x="90" y="770" width="95" height="60"/>
        </mxCell>
        <mxCell id="0bkosJNQqSrqtFEL-qHv-7" value="Wait a second" parent="WIyWlLk6GJQsqaUBKTNV-1" vertex="1" style="rounded=1;whiteSpace=wrap;html=1;fontSize=12;glass=0;strokeWidth=1;shadow=0;">
          <mxGeometry as="geometry" x="240" y="780" width="90" height="40"/>
        </mxCell>
        <mxCell id="0bkosJNQqSrqtFEL-qHv-8" value="Red" parent="WIyWlLk6GJQsqaUBKTNV-1" style="edgeStyle=orthogonalEdgeStyle;rounded=0;html=1;jettySize=auto;orthogonalLoop=1;fontSize=11;endArrow=block;endFill=0;endSize=8;strokeWidth=1;shadow=0;labelBackgroundColor=none;exitX=1;exitY=0.5;exitDx=0;exitDy=0;entryX=0;entryY=0.5;entryDx=0;entryDy=0;" source="0bkosJNQqSrqtFEL-qHv-5" target="0bkosJNQqSrqtFEL-qHv-7" edge="1">
          <mxGeometry as="geometry" x="0.2727" y="10" relative="1">
            <mxPoint as="offset"/>
            <mxPoint as="sourcePoint" x="210" y="680"/>
            <mxPoint as="targetPoint" x="148" y="780"/>
          </mxGeometry>
        </mxCell>
        <mxCell id="0bkosJNQqSrqtFEL-qHv-9" value="Green" parent="WIyWlLk6GJQsqaUBKTNV-1" style="edgeStyle=orthogonalEdgeStyle;rounded=0;html=1;jettySize=auto;orthogonalLoop=1;fontSize=11;endArrow=block;endFill=0;endSize=8;strokeWidth=1;shadow=0;labelBackgroundColor=none;exitX=0.5;exitY=1;exitDx=0;exitDy=0;entryX=0.5;entryY=0;entryDx=0;entryDy=0;" source="0bkosJNQqSrqtFEL-qHv-5" target="0bkosJNQqSrqtFEL-qHv-2" edge="1">
          <mxGeometry as="geometry" x="-0.2791" y="10" relative="1">
            <mxPoint as="offset"/>
            <mxPoint as="sourcePoint" x="210" y="680"/>
            <mxPoint as="targetPoint" x="148" y="780"/>
            <Array as="points">
              <mxPoint x="138" y="860"/>
              <mxPoint x="200" y="860"/>
            </Array>
          </mxGeometry>
        </mxCell>
        <mxCell id="0bkosJNQqSrqtFEL-qHv-10" value="" parent="WIyWlLk6GJQsqaUBKTNV-1" style="rounded=0;html=1;jettySize=auto;orthogonalLoop=1;fontSize=11;endArrow=block;endFill=0;endSize=8;strokeWidth=1;shadow=0;labelBackgroundColor=none;edgeStyle=orthogonalEdgeStyle;exitX=0.5;exitY=0;exitDx=0;exitDy=0;entryX=0.5;entryY=0;entryDx=0;entryDy=0;" source="0bkosJNQqSrqtFEL-qHv-7" target="0bkosJNQqSrqtFEL-qHv-5" edge="1">
          <mxGeometry as="geometry" relative="1">
            <mxPoint as="sourcePoint" x="210" y="530"/>
            <mxPoint as="targetPoint" x="210" y="570"/>
            <Array as="points">
              <mxPoint x="285" y="750"/>
              <mxPoint x="138" y="750"/>
            </Array>
          </mxGeometry>
        </mxCell>
      </root>
    </mxGraphModel>
  </diagram>
</mxfile>
